<svg width="398" height="71" viewBox="0 0 398 71" fill="none" xmlns="http://www.w3.org/2000/svg">
<path d="M17.29 70.7551C8.58 68.6101 2.34 62.1751 0 55.5451C0.065 48.9151 2.405 41.7651 5.98 36.3051C11.765 31.5601 18.07 29.1551 26.91 28.2451C31.59 29.4151 36.205 32.2751 39.26 35.9151C41.08 40.3351 42.575 46.4451 42.705 53.7901C38.48 61.0051 26.26 69.2601 17.29 70.7551ZM22.035 62.3051C25.22 61.2001 28.535 58.8601 30.55 56.3251C30.875 54.4401 31.07 52.4901 31.07 50.1501C31.07 46.6401 30.485 42.2201 29.445 39.3601C27.17 37.3451 23.4 35.9151 19.825 35.2651C17.68 35.7851 16.185 36.6301 14.56 38.1251C12.74 41.1151 11.57 45.4701 11.44 50.6701C13 56.1301 17.03 60.6801 22.035 62.3051Z" fill="black"/>
<path d="M43.0889 69.5201C42.8289 69.0651 42.1139 66.7251 41.9839 65.5551C43.2839 65.1001 46.1439 64.3851 48.4189 63.9301C48.8089 57.7551 49.1339 52.4901 49.2639 48.6551C49.1339 43.4551 48.8739 39.7501 48.6139 34.6801C46.2089 34.7451 44.2589 34.6801 42.1789 34.5501C42.1789 32.9901 42.6989 29.6751 42.8289 29.0901H53.9439C57.7139 29.0901 64.4739 28.6351 67.9839 28.5051C68.2439 29.0901 68.8289 32.2751 68.8939 33.0551C68.3739 33.3151 64.7339 34.0951 60.7039 34.6151C60.5739 36.3051 60.1839 41.2451 60.1189 45.9901C60.2489 51.7751 60.7039 58.2751 60.8339 60.5501C60.7039 61.3301 60.5089 62.1751 60.3139 63.0201C63.6289 63.2151 67.4639 63.2151 69.0889 63.2151C70.5189 60.6151 72.4689 54.6351 73.5739 50.4751C75.1339 50.4751 79.1639 51.1901 80.6589 51.7751C80.7239 55.8051 80.3339 64.9051 79.3589 69.1951C70.5189 69.1951 58.4939 69.0001 53.0339 69.0001L43.0889 69.5201Z" fill="black"/>
<path d="M83.2635 69.2601C83.0035 68.9351 82.5485 66.9851 82.4185 65.2301C83.3285 64.7751 86.7735 63.9301 88.7885 63.6051C89.3735 55.6101 89.5685 53.1401 89.6985 48.6551C89.5035 44.2351 89.3085 39.4251 89.1135 34.6151C88.7235 34.6151 88.2685 34.6151 87.7485 34.6151C85.8635 34.6151 83.3285 34.6801 82.7435 34.5501C82.6785 34.1601 83.2635 30.0001 83.5235 28.8951L92.0385 29.0901C95.4835 28.9601 101.788 28.7651 105.038 28.7651C111.083 29.2201 117.388 30.5201 121.158 32.2101C124.018 34.1601 127.918 38.5151 129.023 42.6751C128.048 50.0201 123.108 59.0551 117.973 64.9701C114.138 67.2451 110.758 68.4801 105.168 69.2601L94.2485 68.9351L83.2635 69.2601ZM100.553 63.3451C103.998 63.3451 107.378 62.8901 109.848 61.9151C113.163 57.7551 114.983 53.0751 115.763 47.4851C115.373 43.5851 113.748 39.4251 111.018 36.8901C107.703 35.5901 104.063 34.8751 100.878 34.6801C100.748 37.2151 100.423 46.5101 100.423 48.3301C100.423 51.2551 100.878 57.6251 100.943 60.8751L100.553 63.3451Z" fill="black"/>
<path d="M164.322 70.3001C158.602 70.3001 151.647 69.5851 148.072 68.6751C148.397 64.8401 150.412 56.7801 151.322 54.5701C153.012 54.5701 156.912 55.6101 158.277 56.1301C158.407 57.6251 158.797 62.9551 158.927 64.3851C160.032 64.7751 161.722 64.9701 162.827 64.9701C164.192 64.9701 165.687 64.9051 166.987 64.5151C167.962 63.8001 169.197 62.3051 169.652 61.2001C167.832 58.7301 164.387 55.4801 160.162 52.4251C155.417 48.9801 150.542 45.2101 149.047 43.2601C149.177 40.3351 150.802 36.1751 152.297 34.0951C154.637 31.8851 160.097 29.2201 163.217 28.3751C166.012 27.8551 170.822 27.7901 172.967 27.7901C175.697 27.7901 177.582 27.9201 179.207 28.1151C179.402 29.9351 179.467 31.2351 179.467 32.6651C179.467 35.1351 179.142 39.1001 178.817 41.4401C177.452 42.0901 173.357 42.8701 171.602 42.9351C171.017 39.6201 169.912 34.7451 169.392 32.9251C168.612 32.7951 168.157 32.7951 167.637 32.7951C166.857 32.7951 165.817 32.8601 164.712 33.1201C163.607 33.3801 162.112 34.0301 161.267 34.6151C160.617 35.5901 160.292 36.6951 160.162 37.7351C161.397 39.8801 164.322 42.5451 169.847 46.5751C176.282 51.2551 178.882 53.0101 181.157 54.9601C180.832 57.3651 179.142 61.7201 177.387 64.0601C174.592 66.6601 170.432 69.0651 166.337 70.2351C165.557 70.3001 165.037 70.3001 164.322 70.3001Z" fill="black"/>
<path d="M197.552 70.6251C191.442 67.6351 185.787 61.9151 183.447 54.9601C183.772 47.5501 185.917 41.5051 189.362 36.1751C195.537 31.4301 202.687 28.8951 209.577 27.9851C212.762 28.0501 217.897 28.7001 220.367 29.3501C220.562 31.4301 220.627 33.7051 220.562 36.3051C220.497 38.9701 220.302 42.5451 220.042 44.4951C218.612 45.2751 213.477 46.0551 211.982 46.0551C211.332 41.8951 210.487 37.9951 209.772 36.2401C208.017 35.6551 205.742 35.3301 203.142 35.3951C201.582 35.8501 199.827 36.7601 198.462 37.8001C196.577 40.9851 195.147 45.2751 194.692 49.6301C195.602 54.4401 198.592 59.0551 203.532 62.6301C207.822 62.3701 215.037 60.3551 218.937 58.9251C219.652 59.4451 221.212 62.4351 221.602 64.0601C215.102 67.3751 204.312 70.4301 197.552 70.6251Z" fill="black"/>
<path d="M224.57 69.5201C224.31 69.1951 223.465 66.2051 223.4 65.5551C224.05 65.1651 227.235 64.5151 229.445 64.3201C230.03 56.3251 230.29 52.7501 230.42 48.6551C230.225 43.5851 229.965 39.6851 229.77 34.7451H228.405C226.39 34.7451 224.44 34.6801 223.725 34.5501C223.725 33.7701 224.57 29.4801 224.765 28.9601L235.035 29.0901C236.335 29.0901 244.2 28.7651 245.045 28.7001C245.305 29.1551 245.955 32.0801 246.02 32.7951C245.5 33.0551 243.485 33.7051 241.47 34.0301C241.405 35.0051 241.275 42.5451 241.21 46.3151C242.12 46.3151 245.045 46.0551 246.995 45.9251C249.79 45.7301 253.56 45.4051 255.445 45.2101C255.315 40.7251 255.25 38.1901 255.12 34.6151H254.08C252.52 34.6151 250.765 34.4201 250.115 34.2901C250.115 33.6401 250.7 29.4151 250.83 28.9601L260.32 29.0901C261.425 29.0901 270.07 28.7651 270.85 28.7001C271.045 29.0901 271.76 32.0801 271.825 32.7951C271.305 33.0551 268.705 33.7051 266.82 34.0301C266.755 36.5001 266.3 44.1051 266.17 48.3301C266.3 50.7351 266.885 58.9251 267.015 60.7451C266.95 61.4601 266.69 62.6301 266.56 63.4751H268.575C269.55 63.4751 272.15 63.6051 272.67 63.6701C272.67 64.6451 272.085 67.8951 271.63 69.0001H260.255L250.44 69.3251C250.18 68.8701 249.335 66.1401 249.27 65.5551C249.92 65.2301 252.91 64.5151 254.86 64.3201C254.99 62.0451 255.25 55.8701 255.38 51.9701H241.34C241.47 54.1151 241.665 58.5351 241.73 60.7451C241.665 61.2001 241.405 62.6301 241.275 63.4751H243.42C245.045 63.4751 246.54 63.6051 247.19 63.6701C247.19 64.6451 246.605 67.8951 246.15 69.0001H234.97L224.57 69.5201Z" fill="black"/>
<path d="M289.795 70.7551C281.085 68.6101 274.845 62.1751 272.505 55.5451C272.57 48.9151 274.91 41.7651 278.485 36.3051C284.27 31.5601 290.575 29.1551 299.415 28.2451C304.095 29.4151 308.71 32.2751 311.765 35.9151C313.585 40.3351 315.08 46.4451 315.21 53.7901C310.985 61.0051 298.765 69.2601 289.795 70.7551ZM294.54 62.3051C297.725 61.2001 301.04 58.8601 303.055 56.3251C303.38 54.4401 303.575 52.4901 303.575 50.1501C303.575 46.6401 302.99 42.2201 301.95 39.3601C299.675 37.3451 295.905 35.9151 292.33 35.2651C290.185 35.7851 288.69 36.6301 287.065 38.1251C285.245 41.1151 284.075 45.4701 283.945 50.6701C285.505 56.1301 289.535 60.6801 294.54 62.3051Z" fill="black"/>
<path d="M334.228 70.7551C325.518 68.6101 319.278 62.1751 316.938 55.5451C317.003 48.9151 319.343 41.7651 322.918 36.3051C328.703 31.5601 335.008 29.1551 343.848 28.2451C348.528 29.4151 353.143 32.2751 356.198 35.9151C358.018 40.3351 359.513 46.4451 359.643 53.7901C355.418 61.0051 343.198 69.2601 334.228 70.7551ZM338.973 62.3051C342.158 61.2001 345.473 58.8601 347.488 56.3251C347.813 54.4401 348.008 52.4901 348.008 50.1501C348.008 46.6401 347.423 42.2201 346.383 39.3601C344.108 37.3451 340.338 35.9151 336.763 35.2651C334.618 35.7851 333.123 36.6301 331.498 38.1251C329.678 41.1151 328.508 45.4701 328.378 50.6701C329.938 56.1301 333.968 60.6801 338.973 62.3051Z" fill="black"/>
<path d="M360.027 69.5201C359.767 69.0651 359.052 66.7251 358.922 65.5551C360.222 65.1001 363.082 64.3851 365.357 63.9301C365.747 57.7551 366.072 52.4901 366.202 48.6551C366.072 43.4551 365.812 39.7501 365.552 34.6801C363.147 34.7451 361.197 34.6801 359.117 34.5501C359.117 32.9901 359.637 29.6751 359.767 29.0901H370.882C374.652 29.0901 381.412 28.6351 384.922 28.5051C385.182 29.0901 385.767 32.2751 385.832 33.0551C385.312 33.3151 381.672 34.0951 377.642 34.6151C377.512 36.3051 377.122 41.2451 377.057 45.9901C377.187 51.7751 377.642 58.2751 377.772 60.5501C377.642 61.3301 377.447 62.1751 377.252 63.0201C380.567 63.2151 384.402 63.2151 386.027 63.2151C387.457 60.6151 389.407 54.6351 390.512 50.4751C392.072 50.4751 396.102 51.1901 397.597 51.7751C397.662 55.8051 397.272 64.9051 396.297 69.1951C387.457 69.1951 375.432 69.0001 369.972 69.0001L360.027 69.5201Z" fill="black"/>
<path fill-rule="evenodd" clip-rule="evenodd" d="M285.173 37.4042L293.149 34.6008C298.192 32.8284 303.716 35.4793 305.489 40.5219L308.292 48.4977C310.065 53.5403 307.414 59.0648 302.371 60.8373L294.395 63.6407C292.56 64.2858 290.661 64.3449 288.902 63.9161C288.787 63.8882 288.672 63.8581 288.557 63.8259C286.641 63.2865 284.937 62.1691 283.678 60.626L283.683 60.627C282.994 59.7826 282.438 58.8067 282.056 57.7196L279.252 49.7438C277.48 44.7012 280.131 39.1766 285.173 37.4042ZM288.793 46.3142L289.582 46.3493C289.646 46.3493 289.709 46.3694 289.762 46.4069C289.815 46.4443 289.855 46.4973 289.876 46.5584C289.897 46.6196 289.898 46.6857 289.88 46.7478C289.862 46.8099 289.825 46.8647 289.774 46.9047L288.65 47.8961C288.58 47.9542 288.511 48.0129 288.442 48.0718C288.329 48.1676 288.215 48.2638 288.099 48.3576C287.729 48.6595 287.352 48.9578 286.964 49.2416C286.576 49.5254 286.181 49.8008 285.772 50.0626L285.751 50.0701C285.689 50.1089 285.615 50.1247 285.543 50.1146C285.47 50.1045 285.404 50.0692 285.355 50.015C285.306 49.9607 285.278 49.8909 285.275 49.8178C285.272 49.7447 285.296 49.6731 285.341 49.6154L285.355 49.5968C285.657 49.2173 285.974 48.8527 286.298 48.4976C286.478 48.2996 286.661 48.1047 286.848 47.913C286.889 47.8717 286.917 47.8199 286.929 47.7636C286.941 47.7072 286.938 47.6486 286.919 47.5941C286.9 47.5397 286.866 47.4917 286.821 47.4555C286.776 47.4194 286.722 47.3965 286.664 47.3894C286.4 47.3564 286.135 47.3195 285.87 47.2788C285.394 47.2034 284.919 47.1132 284.448 47.0109L284.433 47.0079C284.362 46.9916 284.298 46.9505 284.254 46.8919C284.21 46.8332 284.188 46.7608 284.192 46.6874C284.196 46.6141 284.226 46.5445 284.276 46.4911C284.327 46.4377 284.394 46.4039 284.467 46.3957L284.482 46.3906C284.96 46.3414 285.439 46.3069 285.919 46.2873C286.877 46.2485 287.836 46.2574 288.793 46.3142ZM295.898 43.8143L295.312 44.3352C295.262 44.3753 295.226 44.4298 295.208 44.4913C295.19 44.5528 295.192 44.6183 295.213 44.6789C295.233 44.7394 295.272 44.7921 295.324 44.8296C295.376 44.8671 295.438 44.8877 295.502 44.8886L297 44.9586C297.09 44.9603 297.181 44.9628 297.272 44.9653C297.42 44.9693 297.569 44.9733 297.718 44.9741C298.196 44.9775 298.676 44.9749 299.156 44.9535C299.637 44.9321 300.117 44.8999 300.6 44.8481L300.621 44.8406C300.694 44.8321 300.761 44.7983 300.811 44.7451C300.862 44.692 300.891 44.6228 300.896 44.5498C300.9 44.4768 300.878 44.4046 300.835 44.346C300.791 44.2873 300.728 44.246 300.657 44.2291L300.634 44.2239C300.161 44.1168 299.685 44.0306 299.211 43.9564C298.946 43.9143 298.681 43.877 298.415 43.8446C298.358 43.8375 298.304 43.8146 298.259 43.7785C298.214 43.7423 298.18 43.6943 298.161 43.6399C298.142 43.5854 298.138 43.5268 298.151 43.4704C298.163 43.4141 298.191 43.3623 298.231 43.321C298.418 43.1296 298.601 42.9351 298.782 42.7376C299.106 42.3813 299.42 42.0136 299.724 41.6388L299.733 41.6275C299.779 41.57 299.803 41.4981 299.801 41.4247C299.798 41.3513 299.77 41.281 299.721 41.2263C299.672 41.1717 299.605 41.1361 299.532 41.126C299.46 41.1159 299.386 41.1319 299.324 41.1712L299.309 41.1762C298.906 41.4369 298.51 41.71 298.123 41.9951C297.352 42.5641 296.609 43.1713 295.898 43.8143ZM288.449 51.7715L299.578 47.8598C299.661 47.8305 299.749 47.8189 299.836 47.8257C299.923 47.8325 300.008 47.8576 300.085 47.8994C300.161 47.9411 300.229 47.9986 300.282 48.068C300.335 48.1374 300.373 48.2172 300.393 48.3023C300.687 49.5346 300.89 52.2366 297.828 54.1241C298.296 53.825 298.734 53.4786 299.135 53.0892C298.623 52.6928 297.978 52.5098 297.335 52.5787C295.607 52.7843 295.294 53.4423 295.294 53.4423C295.294 53.4423 294.639 53.1283 293.161 54.0459C292.616 54.3946 292.228 54.9408 292.077 55.5699C292.672 55.6266 293.269 55.6185 293.859 55.5468C290.2 56.0583 288.639 53.7846 288.091 52.6265C288.053 52.5475 288.033 52.4614 288.031 52.374C288.029 52.2866 288.046 52.1997 288.079 52.1191C288.113 52.0384 288.164 51.9658 288.227 51.9059C288.291 51.846 288.367 51.8003 288.449 51.7715Z" fill="black"/>
<path fill-rule="evenodd" clip-rule="evenodd" d="M338 34.6801L345.453 37.08C350.686 38.1673 354.047 43.2911 352.96 48.5242L351.601 55.0632L351.603 55.0612L351.242 56.8013C351.133 57.3254 350.982 57.8359 350.791 58.3286C350.275 59.6644 349.481 60.8369 348.492 61.7917C348.059 62.2101 347.585 62.59 347.074 62.9249C346.741 63.1436 346.396 63.3403 346.042 63.5146C344.174 64.437 341.994 64.7653 339.796 64.3086L331.518 62.5888C326.285 61.5015 322.924 56.3778 324.012 51.1446L325.731 42.8671C326.819 37.6339 332.767 33.5928 338 34.6801ZM335.134 46.4924C335.17 46.4607 335.196 46.4182 335.207 46.371C335.306 45.9146 335.248 45.438 335.042 45.0186C334.878 44.6892 334.641 44.4014 334.349 44.1768C334.058 43.9521 333.719 43.7965 333.358 43.7216C332.998 43.6467 332.625 43.6545 332.268 43.7444C331.911 43.8343 331.579 44.0039 331.297 44.2405C330.94 44.5431 330.696 44.9582 330.606 45.4177C330.597 45.4653 330.604 45.5145 330.625 45.5582C330.646 45.6019 330.68 45.6379 330.722 45.6611C330.765 45.6842 330.814 45.6933 330.862 45.6871C330.91 45.6809 330.955 45.6597 330.99 45.6266C331.234 45.3852 331.524 45.1956 331.843 45.0692C332.243 44.9089 332.681 44.8702 333.102 44.9578C333.524 45.0454 333.91 45.2554 334.213 45.5616C334.454 45.804 334.644 46.0924 334.771 46.4097C334.791 46.4542 334.823 46.4915 334.865 46.5163C334.906 46.5411 334.955 46.5522 335.003 46.5479C335.051 46.5436 335.097 46.5242 335.134 46.4924ZM347.39 49.0389C347.427 49.0072 347.452 48.9647 347.463 48.9175C347.562 48.461 347.505 47.9845 347.299 47.5651C347.134 47.2357 346.898 46.9479 346.606 46.7233C346.314 46.4986 345.975 46.343 345.615 46.2681C345.255 46.1932 344.882 46.201 344.525 46.2909C344.168 46.3807 343.836 46.5504 343.554 46.787C343.196 47.0896 342.953 47.5047 342.862 47.9642C342.854 48.0118 342.86 48.061 342.881 48.1047C342.902 48.1484 342.936 48.1844 342.979 48.2076C343.021 48.2307 343.07 48.2398 343.118 48.2336C343.166 48.2274 343.211 48.2062 343.246 48.173C343.49 47.9317 343.78 47.7421 344.099 47.6156C344.499 47.4553 344.938 47.4166 345.359 47.5042C345.781 47.5919 346.168 47.802 346.471 48.1083C346.711 48.351 346.901 48.6392 347.028 48.9561C347.047 49.0006 347.08 49.038 347.121 49.0628C347.163 49.0876 347.211 49.0987 347.26 49.0944C347.308 49.0901 347.354 49.0707 347.39 49.0389ZM332.565 49.356L344.115 51.7557C344.201 51.7732 344.282 51.8085 344.353 51.8594C344.424 51.9103 344.484 51.9755 344.528 52.051C344.572 52.1264 344.6 52.2103 344.61 52.2972C344.619 52.3842 344.611 52.4721 344.584 52.5555C344.198 53.7661 342.969 56.1969 339.345 56.2157C339.908 56.2027 340.471 56.132 341.024 56.0036C340.791 55.4001 340.333 54.9103 339.747 54.637C338.16 53.9201 337.553 54.3219 337.553 54.3219C337.553 54.3219 337.155 53.715 335.415 53.737C334.769 53.7541 334.154 54.0207 333.7 54.481C331.801 52.9808 331.711 50.9464 331.816 49.9028C331.825 49.8158 331.852 49.7316 331.896 49.6557C331.939 49.5799 331.998 49.514 332.069 49.4624C332.14 49.4109 332.22 49.3747 332.306 49.3564C332.391 49.3381 332.48 49.3379 332.565 49.356ZM333.731 54.5051C334.098 54.7911 334.532 55.0573 335.044 55.2929C334.584 55.0722 334.144 54.8087 333.731 54.5051Z" fill="black"/>
<path d="M238.176 24.7026C238.656 24.827 239.09 25.0179 239.453 25.2586C240.201 25.7546 240.664 26.4643 240.664 27.2701C240.664 28.0759 240.201 28.7856 239.453 29.2816C238.784 29.7255 237.872 30 236.877 30C235.881 30 234.97 29.7255 234.3 29.2816C233.552 28.7856 233.089 28.0759 233.089 27.2701C233.089 26.4643 233.552 25.7546 234.3 25.2586C234.663 25.0179 235.098 24.827 235.578 24.7026V26.6928C235.578 27.4099 236.16 27.9916 236.877 27.9916C237.594 27.9916 238.176 27.4099 238.176 26.6928L238.176 24.7026Z" fill="black"/>
<path d="M236.876 1.11469e-05C238.687 1.11469e-05 240.339 0.290631 241.548 0.760525C242.94 1.30214 243.802 2.12145 243.802 3.09005C243.802 4.05862 242.94 4.87797 241.548 5.41958C240.339 5.88945 238.687 6.18009 236.876 6.18009C235.066 6.18009 233.414 5.88947 232.205 5.41958C230.812 4.87797 229.951 4.05862 229.951 3.09005C229.951 2.12145 230.812 1.30214 232.205 0.760525C233.414 0.290651 235.066 1.11469e-05 236.876 1.11469e-05ZM241.081 1.96796C240.018 1.55453 238.532 1.29883 236.876 1.29883C235.221 1.29883 233.735 1.55455 232.672 1.96796C231.793 2.30965 231.25 2.71072 231.25 3.09005C231.25 3.46938 231.793 3.87045 232.672 4.21215C233.735 4.62558 235.221 4.8813 236.876 4.8813C238.532 4.8813 240.018 4.62558 241.081 4.21215C241.959 3.87045 242.503 3.46938 242.503 3.09005C242.503 2.71072 241.96 2.30965 241.081 1.96796Z" fill="black"/>
<path d="M243.802 3.09005V11.9375C243.802 14.9025 241.985 16.7973 239.659 17.624C238.778 17.9372 237.826 18.0938 236.876 18.0938C235.927 18.0938 234.975 17.9372 234.094 17.624C231.768 16.7974 229.951 14.9025 229.951 11.9375V3.09005H231.25L231.25 11.9375C231.25 14.2591 232.686 15.7478 234.525 16.4014C235.263 16.6638 236.068 16.795 236.876 16.795C237.684 16.795 238.489 16.6638 239.228 16.4014C241.066 15.7478 242.503 14.2592 242.503 11.9375V3.09005H243.802Z" fill="black"/>
<path d="M237.526 17.4439C237.526 17.0853 237.235 16.795 236.876 16.795C236.518 16.795 236.228 17.0853 236.228 17.4439V26.6929C236.228 27.0516 236.518 27.3423 236.877 27.3423C237.236 27.3423 237.526 27.0516 237.526 26.6929V17.4439Z" fill="black"/>
<path d="M231.899 8.92357C233.92 9.32795 235.458 8.88699 236.92 8.4676C238.49 8.01739 239.981 7.58977 241.854 8.05941V11.9375C241.854 13.8273 240.755 15.1693 239.01 15.7895C238.33 16.0314 237.598 16.1457 236.876 16.1457C236.155 16.1457 235.423 16.0314 234.742 15.7895C232.998 15.1693 231.899 13.8273 231.899 11.9375L231.899 8.92357Z" fill="black"/>
<path d="M254.869 24.7882C254.422 25.0035 254.033 25.2752 253.723 25.5819C253.086 26.2139 252.77 27 252.927 27.7904C253.083 28.5808 253.675 29.187 254.505 29.5282C255.248 29.8334 256.196 29.9255 257.172 29.7321C258.149 29.5386 258.99 29.0921 259.56 28.5265C260.198 27.8946 260.514 27.1085 260.357 26.3181C260.2 25.5277 259.609 24.9214 258.778 24.5803C258.375 24.4148 257.912 24.3119 257.417 24.2833L257.804 26.2356C257.943 26.939 257.485 27.6226 256.782 27.762C256.079 27.9014 255.395 27.4438 255.256 26.7404L254.869 24.7882Z" fill="black"/>
<path d="M251.342 0.304091C249.566 0.655958 248.002 1.26229 246.908 1.95804C245.647 2.76004 244.961 3.7312 245.149 4.6813C245.338 5.6314 246.342 6.26768 247.813 6.52825C249.09 6.75431 250.768 6.71821 252.543 6.36632C254.319 6.01448 255.884 5.40815 256.978 4.71237C258.239 3.91037 258.924 2.93922 258.736 1.98914C258.548 1.039 257.544 0.402753 256.072 0.142148C254.795 -0.0838938 253.118 -0.0477958 251.342 0.304091ZM247.6 3.05174C248.563 2.43955 249.97 1.89999 251.595 1.57814C253.219 1.2563 254.726 1.21841 255.849 1.41733C256.777 1.58173 257.388 1.86947 257.462 2.2416C257.536 2.61367 257.081 3.11275 256.285 3.6187C255.323 4.23089 253.915 4.77047 252.291 5.09232C250.667 5.41415 249.16 5.45203 248.037 5.25313C247.108 5.08873 246.497 4.80096 246.423 4.42885C246.35 4.05676 246.805 3.55771 247.6 3.05174Z" fill="black"/>
<path d="M245.149 4.6813L246.869 13.36C247.445 16.2684 249.595 17.774 252.038 18.1329C252.963 18.2688 253.927 18.2373 254.858 18.0528C255.79 17.8684 256.693 17.5296 257.497 17.0511C259.617 15.7882 261.032 13.5763 260.455 10.6678L258.736 1.98914L257.462 2.2416L259.181 10.9203C259.632 13.1976 258.513 14.9371 256.836 15.9356C256.163 16.3366 255.399 16.6218 254.606 16.7788C253.813 16.9359 252.998 16.9636 252.223 16.8497C250.292 16.566 248.594 15.385 248.143 13.1075L246.423 4.42885L245.149 4.6813Z" fill="black"/>
<path d="M254.096 17.5417C254.026 17.1898 254.255 16.8481 254.607 16.7784C254.959 16.7087 255.301 16.9374 255.37 17.2892L257.168 26.3618C257.238 26.7136 257.009 27.0553 256.657 27.1251C256.305 27.1948 255.964 26.9661 255.894 26.6143L254.096 17.5417Z" fill="black"/>
<path d="M257.958 8.09006C256.055 8.87945 254.46 8.74589 252.944 8.61869C251.317 8.48218 249.771 8.35264 248.026 9.17721L248.779 12.9813C249.147 14.8351 250.485 15.938 252.317 16.2072C253.032 16.3122 253.772 16.2821 254.48 16.1418C255.187 16.0016 255.883 15.7473 256.504 15.3777C258.095 14.4302 258.911 12.9003 258.544 11.0465L257.958 8.09006Z" fill="black"/>
<path d="M157.898 21.2891C158.475 20.319 159.342 19.4926 160.394 18.8521C161.013 18.4749 161.699 18.1614 162.426 17.9206C163.294 18.4379 164.549 18.763 165.945 18.763C167.343 18.763 168.6 18.4369 169.467 17.9183C170.185 18.1539 170.861 18.4598 171.473 18.8276C172.542 19.4693 173.419 20.3005 173.992 21.2804C171.171 21.6943 168.315 22.639 165.915 23.9823C163.533 22.6484 160.7 21.7075 157.898 21.2891Z" fill="black"/>
<path d="M177.664 23.4809V22.3327C177.664 22.0244 177.414 21.7744 177.106 21.7744C173.369 21.7744 169.16 22.9125 165.917 24.8229C162.673 22.9125 158.465 21.7744 154.727 21.7744C154.419 21.7744 154.169 22.0244 154.169 22.3327V23.4809C154.364 23.5584 154.558 23.6987 154.753 23.7955C155.765 23.7213 156.922 23.5366 157.406 24.7669C157.5 25.0033 157.541 25.2598 157.534 25.5134C157.527 25.761 157.474 26.0092 157.376 26.2368L157.376 26.2378L157.375 26.2388C157.371 26.2482 157.367 26.258 157.362 26.2674L157.362 26.2684L157.362 26.2694C157.435 26.4993 157.465 26.741 157.448 26.9819C157.433 27.2051 157.379 27.4261 157.287 27.6301L157.286 27.6314L157.286 27.6327L157.285 27.634L157.285 27.6352L157.284 27.6366L157.284 27.6376L157.284 27.6389C157.288 27.6507 157.292 27.6627 157.295 27.6747L157.296 27.6772C157.358 27.8912 157.382 28.115 157.367 28.3372C157.351 28.5604 157.297 28.7813 157.205 28.9853C156.907 29.6476 156.273 30.0324 155.542 29.9799L155.538 29.9796L155.534 29.9793L155.53 29.979L155.526 29.9787L155.524 29.9786L155.518 29.9782L155.51 29.9776L155.506 29.9774L155.502 29.9771L155.498 29.9769L155.494 29.9766L155.49 29.9764L155.488 29.9763L155.482 29.9759L155.474 29.9754L155.471 29.9752L155.466 29.975L155.454 29.9743L155.453 29.9742L155.45 29.9741L155.446 29.9738L155.438 29.9735L155.435 29.9733L155.422 29.9726L155.418 29.9725L155.417 29.9724L155.414 29.9723L155.41 29.9721L155.399 29.9716L155.398 29.9715L155.394 29.9714L155.39 29.9712L155.366 29.9702L155.363 29.9701L155.358 29.9699L155.354 29.9697L155.35 29.9696L155.346 29.9694L155.33 29.9689L155.327 29.9689L155.322 29.9686L155.314 29.9684L155.31 29.9683L155.302 29.9681L155.298 29.968L155.294 29.9678L155.292 29.9678L155.29 29.9677L155.286 29.9676C154.99 29.9601 154.695 29.9738 154.399 29.9888C154.322 29.9928 154.246 29.9965 154.169 29.9998V31.317C154.169 31.6253 154.419 31.8753 154.727 31.8753C158.407 31.8753 162.495 32.6512 165.534 34.87C165.641 34.9597 165.777 35.0059 165.917 34.9996C166.056 35.0059 166.193 34.9596 166.299 34.8699C169.338 32.6512 173.426 31.8753 177.106 31.8753C177.414 31.8753 177.664 31.6253 177.664 31.317V29.9998C177.588 29.9965 177.511 29.9928 177.435 29.9888C177.138 29.9738 176.843 29.9601 176.548 29.9676L176.544 29.9677L176.542 29.9678L176.54 29.9678L176.536 29.968L176.532 29.9681L176.528 29.9682L176.524 29.9683L176.52 29.9684L176.512 29.9686L176.506 29.9689L176.504 29.9689L176.492 29.9693L176.488 29.9694L176.484 29.9696L176.48 29.9697L176.476 29.9699L176.47 29.9701L176.468 29.9702L176.456 29.9707L176.452 29.9708L176.447 29.971L176.443 29.9712L176.439 29.9714L176.435 29.9715L176.434 29.9716L176.427 29.9719L176.423 29.9721L176.419 29.9723L176.415 29.9725L176.411 29.9726L176.407 29.9728L176.399 29.9732L176.395 29.9735L176.387 29.9738L176.383 29.9741L176.381 29.9742L176.379 29.9743L176.355 29.9756L176.351 29.9759L176.347 29.9761L176.345 29.9763L176.343 29.9764L176.339 29.9766L176.335 29.9769L176.331 29.9771L176.327 29.9774L176.323 29.9776L176.315 29.9782L176.311 29.9784L176.309 29.9786L176.307 29.9787L176.303 29.979L176.299 29.9793L176.295 29.9796L176.291 29.9799C175.56 30.0324 174.927 29.6476 174.628 28.9853C174.536 28.7813 174.482 28.5604 174.467 28.3372C174.451 28.115 174.475 27.8918 174.537 27.6778L174.538 27.6765L174.538 27.6753C174.541 27.6633 174.545 27.6507 174.549 27.6389L174.549 27.6376L174.549 27.6365L174.549 27.6352L174.548 27.634L174.548 27.6327L174.547 27.6314L174.546 27.6301C174.454 27.4261 174.4 27.2051 174.385 26.9819C174.369 26.741 174.398 26.4993 174.472 26.2694L174.471 26.2684L174.471 26.2674C174.467 26.258 174.462 26.2487 174.458 26.2393L174.458 26.2383L174.458 26.2373C174.359 26.0097 174.307 25.7611 174.3 25.5134C174.293 25.2598 174.334 25.0033 174.427 24.7669C174.911 23.5366 176.069 23.7213 177.081 23.7955C177.275 23.6987 177.469 23.5583 177.664 23.4809Z" fill="black"/>
<path d="M154.155 24.2929C154.268 24.3449 154.36 24.3902 154.436 24.4272C154.566 24.491 154.626 24.5203 154.672 24.5257C154.729 24.5322 154.827 24.525 155.009 24.5114C155.015 24.5111 155.02 24.5103 155.026 24.5101C155.209 24.4964 155.471 24.4774 155.9 24.4599C156.354 24.4415 156.643 24.6924 156.777 25.0335C156.833 25.1754 156.858 25.3341 156.854 25.4927C156.85 25.6496 156.817 25.8067 156.756 25.9473C156.712 26.0477 156.656 26.1412 156.587 26.2229C156.649 26.3148 156.695 26.4172 156.727 26.5251C156.765 26.657 156.78 26.7945 156.77 26.9315C156.761 27.069 156.728 27.2054 156.672 27.3298C156.63 27.4228 156.576 27.5093 156.51 27.5854C156.57 27.6753 156.615 27.7753 156.645 27.8804C156.683 28.0123 156.698 28.1498 156.689 28.2868C156.679 28.4243 156.646 28.5607 156.59 28.685C156.434 29.0312 156.114 29.2859 155.644 29.2521C155.198 29.2201 154.781 29.2413 154.411 29.2602C153.579 29.3025 152.949 29.3345 152.573 28.8065C151.681 27.553 151.878 26.1789 152.358 25.2615C152.498 24.9957 152.661 24.7671 152.828 24.5896C153.012 24.3948 153.209 24.2531 153.397 24.1799C153.684 24.0688 153.95 24.0964 154.155 24.2929ZM177.448 24.4271C177.523 24.3901 177.616 24.3448 177.728 24.2927C177.933 24.0962 178.199 24.0687 178.486 24.1798C178.674 24.253 178.871 24.3947 179.055 24.5895C179.223 24.767 179.386 24.9956 179.525 25.2613C180.005 26.1788 180.202 27.5529 179.31 28.8063C178.934 29.3344 178.304 29.3024 177.472 29.26C177.103 29.2412 176.685 29.22 176.239 29.252C175.769 29.2858 175.449 29.031 175.293 28.6849C175.237 28.5606 175.204 28.4242 175.195 28.2866C175.185 28.1497 175.2 28.0122 175.238 27.8803C175.269 27.7752 175.313 27.6752 175.373 27.5853C175.307 27.5093 175.254 27.4227 175.212 27.3297C175.156 27.2053 175.122 27.0689 175.113 26.9313C175.104 26.7944 175.118 26.6569 175.156 26.525C175.188 26.417 175.234 26.3146 175.296 26.2228C175.227 26.1411 175.171 26.0476 175.127 25.9471C175.067 25.8066 175.034 25.6495 175.029 25.4926C175.025 25.334 175.05 25.1753 175.106 25.0334C175.24 24.6923 175.529 24.4414 175.983 24.4598C176.413 24.4773 176.674 24.4963 176.857 24.51C176.863 24.5101 176.868 24.5104 176.874 24.5108C177.056 24.5243 177.154 24.5321 177.211 24.5256C177.257 24.5202 177.317 24.4908 177.448 24.4271Z" fill="black"/>
<path d="M161.84 1.52597e-05C161.429 0.461302 161.515 2.43911 161.631 3.12778C160.558 3.90042 159.71 4.94734 159.169 6.14943C158.575 7.47236 158.352 8.98349 158.614 10.5235C158.962 12.5695 160.098 14.28 161.653 15.3913C163.207 16.5013 165.18 17.0123 167.204 16.6612C169.228 16.3098 170.921 15.1617 172.02 13.5897C173.119 12.0194 173.624 10.0256 173.277 7.98057C172.929 5.93451 171.793 4.22406 170.238 3.11279C168.699 2.01358 166.749 1.50189 164.746 1.83309C163.294 2.06248 161.998 0.590159 161.84 1.52597e-05ZM160.207 10.8055C161.076 10.4293 161.864 9.89063 162.531 9.21837C163.074 8.67092 163.529 8.0433 163.881 7.35748C164.13 7.59209 164.394 7.80949 164.672 8.00814C166.226 9.1182 168.199 9.62916 170.222 9.27802C170.653 9.20321 171.08 9.08858 171.497 8.93602C171.622 8.8902 171.746 8.84103 171.868 8.78857C171.98 10.2266 171.574 11.606 170.796 12.7191C169.919 13.9725 168.568 14.8881 166.952 15.1687C165.334 15.4494 163.757 15.0408 162.515 14.1535C161.413 13.3664 160.575 12.2012 160.207 10.8055Z" fill="black"/>
<path fill-rule="evenodd" clip-rule="evenodd" d="M99.0952 44.0388L98.5454 48.505L97.8661 48.4744L97.6226 50.5128C97.4298 52.0124 98.0485 53.4623 99.2271 54.2885L105.093 58.4001C106.271 59.2263 107.845 59.3135 109.189 58.6209L115.033 55.6485C116.377 54.9559 117.333 53.5931 117.525 52.0935L118.326 45.5859C118.519 44.0863 117.901 42.6364 116.722 41.8103L115.982 41.2915L115.564 41.8871L110.439 38.2943C109.452 37.6026 108.153 37.5314 107.016 38.104L101.172 41.0763C100.035 41.6488 99.2456 42.7746 99.0952 44.0388ZM105.523 42.7995C105.585 42.8428 105.639 42.8909 105.686 42.9436C106.262 43.5703 106.074 44.9296 105.231 46.131C104.318 47.4345 102.967 48.0783 102.2 47.5403C102.176 47.5236 102.154 47.5064 102.134 47.4885C101.443 46.9123 101.605 45.4732 102.492 44.2088C103.405 42.9053 104.756 42.2615 105.523 42.7995ZM104.377 54.0561C105.154 54.1145 105.836 53.6653 105.901 53.048C105.966 52.4307 105.377 51.9296 104.6 51.8712C103.824 51.8128 103.141 52.262 103.076 52.8793C103.011 53.4966 103.6 53.9977 104.377 54.0561ZM110.885 41.7404C110.443 41.9614 110.262 42.6291 110.52 43.252C110.778 43.8749 111.334 44.1318 111.775 43.9108C112.216 43.6898 112.398 43.0221 112.14 42.3992C111.881 41.7763 111.326 41.5194 110.885 41.7404ZM112.217 44.9716C111.776 45.1926 111.594 45.8604 111.852 46.4832C112.083 47.0869 112.666 47.3631 113.107 47.1421C113.548 46.9211 113.73 46.2533 113.472 45.6305C113.213 45.0076 112.678 44.721 112.217 44.9716ZM114.432 50.3245C114.873 50.1035 115.055 49.4358 114.797 48.8129C114.566 48.2092 113.983 47.9331 113.542 48.1541C113.101 48.3751 112.919 49.0428 113.177 49.6657C113.436 50.2886 113.991 50.5455 114.432 50.3245ZM110.972 52.2286C110.195 52.1703 109.513 52.6195 109.448 53.2367C109.383 53.854 109.972 54.3552 110.748 54.4136C111.525 54.472 112.208 54.0228 112.273 53.4055C112.337 52.7882 111.749 52.287 110.972 52.2286Z" fill="black"/>
<path fill-rule="evenodd" clip-rule="evenodd" d="M38.951 47.5001C38.951 57.165 31.116 65.0001 21.451 65.0001C11.786 65.0001 3.95098 57.165 3.95098 47.5001C3.95098 37.8351 11.786 30.0001 21.451 30.0001C31.116 30.0001 38.951 37.8351 38.951 47.5001ZM28.0296 41.7835L28.2072 41.9387C28.2471 41.9736 28.2798 42.016 28.3034 42.0636C28.327 42.1111 28.3409 42.1629 28.3445 42.2158C28.3481 42.2688 28.3412 42.3219 28.3242 42.3722C28.3073 42.4225 28.2806 42.4689 28.2457 42.5089L25.0996 46.1103C25.0291 46.191 24.9294 46.2404 24.8225 46.2476C24.7156 46.2548 24.6102 46.2193 24.5295 46.1488L24.0767 45.7533L21.8986 48.2468L23.2485 49.7921C23.4278 49.814 23.5999 49.8996 23.7281 50.0463L27.6744 54.5639C27.7632 54.6656 27.8201 54.7842 27.8459 54.9076C27.9826 55.2055 27.9144 55.5697 27.6549 55.7964L27.5082 55.9245C27.1923 56.2004 26.7125 56.168 26.4365 55.8521L22.4902 51.3345C22.4015 51.2329 22.3446 51.1144 22.3188 50.9911C22.2864 50.9206 22.2655 50.8463 22.2559 50.771L20.9747 49.3043L19.5261 50.9627C19.4953 51.0575 19.4453 51.1477 19.3756 51.2275L15.4293 55.7451C15.1534 56.061 14.6735 56.0935 14.3576 55.8175L14.2109 55.6894C13.8949 55.4134 13.8625 54.9336 14.1385 54.6176L18.0848 50.1C18.2555 49.9046 18.5043 49.8177 18.7439 49.8451L20.0955 48.2978L18.5047 46.4767C17.2541 47.1462 16.3297 46.088 15.2212 44.819C14.6992 44.2214 14.3358 43.5677 14.1491 42.9538C13.8217 42.0197 13.8918 41.1571 14.4215 40.6944C15.2721 39.9514 16.9855 40.5213 18.2486 41.9672C18.917 42.7323 19.5184 43.4208 19.7084 44.0988C19.8882 44.5822 19.8739 45.0577 19.5419 45.549L21.0193 47.2403L23.0794 44.882L22.4244 44.3099C22.3438 44.2394 22.2944 44.1397 22.2872 44.0328C22.28 43.9259 22.3155 43.8205 22.386 43.7398L25.532 40.1383C25.5669 40.0983 25.6093 40.0656 25.6569 40.0421C25.7044 40.0185 25.7561 40.0046 25.809 40.001C25.862 39.9974 25.9151 40.0043 25.9654 40.0213C26.0156 40.0382 26.0621 40.0649 26.102 40.0998L26.2797 40.2549L23.2195 43.758L23.7775 44.2455L26.8377 40.7423L27.4717 41.2961L24.4494 44.7559C24.4643 44.7908 24.4761 44.8267 24.4848 44.8633L24.9695 45.2867L28.0296 41.7835Z" fill="black"/>
</svg>
