<svg width="499" height="102" viewBox="0 0 499 102" fill="none" xmlns="http://www.w3.org/2000/svg">
<g filter="url(#filter0_i_26_54)">
<rect width="499" height="102" rx="20" fill="#FFC62B"/>
</g>
<g filter="url(#filter1_d_26_54)">
<path d="M65.29 75.755C56.58 73.61 50.34 67.175 48 60.545C48.065 53.915 50.405 46.765 53.98 41.305C59.765 36.56 66.07 34.155 74.91 33.245C79.59 34.415 84.205 37.275 87.26 40.915C89.08 45.335 90.575 51.445 90.705 58.79C86.48 66.005 74.26 74.26 65.29 75.755ZM70.035 67.305C73.22 66.2 76.535 63.86 78.55 61.325C78.875 59.44 79.07 57.49 79.07 55.15C79.07 51.64 78.485 47.22 77.445 44.36C75.17 42.345 71.4 40.915 67.825 40.265C65.68 40.785 64.185 41.63 62.56 43.125C60.74 46.115 59.57 50.47 59.44 55.67C61 61.13 65.03 65.68 70.035 67.305Z" fill="black"/>
<path d="M91.0889 74.52C90.8289 74.065 90.1139 71.725 89.9839 70.555C91.2839 70.1 94.1439 69.385 96.4189 68.93C96.8089 62.755 97.1339 57.49 97.2639 53.655C97.1339 48.455 96.8739 44.75 96.6139 39.68C94.2089 39.745 92.2589 39.68 90.1789 39.55C90.1789 37.99 90.6989 34.675 90.8289 34.09H101.944C105.714 34.09 112.474 33.635 115.984 33.505C116.244 34.09 116.829 37.275 116.894 38.055C116.374 38.315 112.734 39.095 108.704 39.615C108.574 41.305 108.184 46.245 108.119 50.99C108.249 56.775 108.704 63.275 108.834 65.55C108.704 66.33 108.509 67.175 108.314 68.02C111.629 68.215 115.464 68.215 117.089 68.215C118.519 65.615 120.469 59.635 121.574 55.475C123.134 55.475 127.164 56.19 128.659 56.775C128.724 60.805 128.334 69.905 127.359 74.195C118.519 74.195 106.494 74 101.034 74L91.0889 74.52Z" fill="black"/>
<path d="M131.263 74.26C131.003 73.935 130.548 71.985 130.418 70.23C131.328 69.775 134.773 68.93 136.788 68.605C137.373 60.61 137.568 58.14 137.698 53.655C137.503 49.235 137.308 44.425 137.113 39.615C136.723 39.615 136.268 39.615 135.748 39.615C133.863 39.615 131.328 39.68 130.743 39.55C130.678 39.16 131.263 35 131.523 33.895L140.038 34.09C143.483 33.96 149.788 33.765 153.038 33.765C159.083 34.22 165.388 35.52 169.158 37.21C172.018 39.16 175.918 43.515 177.023 47.675C176.048 55.02 171.108 64.055 165.973 69.97C162.138 72.245 158.758 73.48 153.168 74.26L142.248 73.935L131.263 74.26ZM148.553 68.345C151.998 68.345 155.378 67.89 157.848 66.915C161.163 62.755 162.983 58.075 163.763 52.485C163.373 48.585 161.748 44.425 159.018 41.89C155.703 40.59 152.063 39.875 148.878 39.68C148.748 42.215 148.423 51.51 148.423 53.33C148.423 56.255 148.878 62.625 148.943 65.875L148.553 68.345Z" fill="black"/>
<path d="M212.322 75.3C206.602 75.3 199.647 74.585 196.072 73.675C196.397 69.84 198.412 61.78 199.322 59.57C201.012 59.57 204.912 60.61 206.277 61.13C206.407 62.625 206.797 67.955 206.927 69.385C208.032 69.775 209.722 69.97 210.827 69.97C212.192 69.97 213.687 69.905 214.987 69.515C215.962 68.8 217.197 67.305 217.652 66.2C215.832 63.73 212.387 60.48 208.162 57.425C203.417 53.98 198.542 50.21 197.047 48.26C197.177 45.335 198.802 41.175 200.297 39.095C202.637 36.885 208.097 34.22 211.217 33.375C214.012 32.855 218.822 32.79 220.967 32.79C223.697 32.79 225.582 32.92 227.207 33.115C227.402 34.935 227.467 36.235 227.467 37.665C227.467 40.135 227.142 44.1 226.817 46.44C225.452 47.09 221.357 47.87 219.602 47.935C219.017 44.62 217.912 39.745 217.392 37.925C216.612 37.795 216.157 37.795 215.637 37.795C214.857 37.795 213.817 37.86 212.712 38.12C211.607 38.38 210.112 39.03 209.267 39.615C208.617 40.59 208.292 41.695 208.162 42.735C209.397 44.88 212.322 47.545 217.847 51.575C224.282 56.255 226.882 58.01 229.157 59.96C228.832 62.365 227.142 66.72 225.387 69.06C222.592 71.66 218.432 74.065 214.337 75.235C213.557 75.3 213.037 75.3 212.322 75.3Z" fill="black"/>
<path d="M245.552 75.625C239.442 72.635 233.787 66.915 231.447 59.96C231.772 52.55 233.917 46.505 237.362 41.175C243.537 36.43 250.687 33.895 257.577 32.985C260.762 33.05 265.897 33.7 268.367 34.35C268.562 36.43 268.627 38.705 268.562 41.305C268.497 43.97 268.302 47.545 268.042 49.495C266.612 50.275 261.477 51.055 259.982 51.055C259.332 46.895 258.487 42.995 257.772 41.24C256.017 40.655 253.742 40.33 251.142 40.395C249.582 40.85 247.827 41.76 246.462 42.8C244.577 45.985 243.147 50.275 242.692 54.63C243.602 59.44 246.592 64.055 251.532 67.63C255.822 67.37 263.037 65.355 266.937 63.925C267.652 64.445 269.212 67.435 269.602 69.06C263.102 72.375 252.312 75.43 245.552 75.625Z" fill="black"/>
<path d="M272.57 74.52C272.31 74.195 271.465 71.205 271.4 70.555C272.05 70.165 275.235 69.515 277.445 69.32C278.03 61.325 278.29 57.75 278.42 53.655C278.225 48.585 277.965 44.685 277.77 39.745H276.405C274.39 39.745 272.44 39.68 271.725 39.55C271.725 38.77 272.57 34.48 272.765 33.96L283.035 34.09C284.335 34.09 292.2 33.765 293.045 33.7C293.305 34.155 293.955 37.08 294.02 37.795C293.5 38.055 291.485 38.705 289.47 39.03C289.405 40.005 289.275 47.545 289.21 51.315C290.12 51.315 293.045 51.055 294.995 50.925C297.79 50.73 301.56 50.405 303.445 50.21C303.315 45.725 303.25 43.19 303.12 39.615H302.08C300.52 39.615 298.765 39.42 298.115 39.29C298.115 38.64 298.7 34.415 298.83 33.96L308.32 34.09C309.425 34.09 318.07 33.765 318.85 33.7C319.045 34.09 319.76 37.08 319.825 37.795C319.305 38.055 316.705 38.705 314.82 39.03C314.755 41.5 314.3 49.105 314.17 53.33C314.3 55.735 314.885 63.925 315.015 65.745C314.95 66.46 314.69 67.63 314.56 68.475H316.575C317.55 68.475 320.15 68.605 320.67 68.67C320.67 69.645 320.085 72.895 319.63 74H308.255L298.44 74.325C298.18 73.87 297.335 71.14 297.27 70.555C297.92 70.23 300.91 69.515 302.86 69.32C302.99 67.045 303.25 60.87 303.38 56.97H289.34C289.47 59.115 289.665 63.535 289.73 65.745C289.665 66.2 289.405 67.63 289.275 68.475H291.42C293.045 68.475 294.54 68.605 295.19 68.67C295.19 69.645 294.605 72.895 294.15 74H282.97L272.57 74.52Z" fill="black"/>
<path d="M337.795 75.755C329.085 73.61 322.845 67.175 320.505 60.545C320.57 53.915 322.91 46.765 326.485 41.305C332.27 36.56 338.575 34.155 347.415 33.245C352.095 34.415 356.71 37.275 359.765 40.915C361.585 45.335 363.08 51.445 363.21 58.79C358.985 66.005 346.765 74.26 337.795 75.755ZM342.54 67.305C345.725 66.2 349.04 63.86 351.055 61.325C351.38 59.44 351.575 57.49 351.575 55.15C351.575 51.64 350.99 47.22 349.95 44.36C347.675 42.345 343.905 40.915 340.33 40.265C338.185 40.785 336.69 41.63 335.065 43.125C333.245 46.115 332.075 50.47 331.945 55.67C333.505 61.13 337.535 65.68 342.54 67.305Z" fill="black"/>
<path d="M382.228 75.755C373.518 73.61 367.278 67.175 364.938 60.545C365.003 53.915 367.343 46.765 370.918 41.305C376.703 36.56 383.008 34.155 391.848 33.245C396.528 34.415 401.143 37.275 404.198 40.915C406.018 45.335 407.513 51.445 407.643 58.79C403.418 66.005 391.198 74.26 382.228 75.755ZM386.973 67.305C390.158 66.2 393.473 63.86 395.488 61.325C395.813 59.44 396.008 57.49 396.008 55.15C396.008 51.64 395.423 47.22 394.383 44.36C392.108 42.345 388.338 40.915 384.763 40.265C382.618 40.785 381.123 41.63 379.498 43.125C377.678 46.115 376.508 50.47 376.378 55.67C377.938 61.13 381.968 65.68 386.973 67.305Z" fill="black"/>
<path d="M408.027 74.52C407.767 74.065 407.052 71.725 406.922 70.555C408.222 70.1 411.082 69.385 413.357 68.93C413.747 62.755 414.072 57.49 414.202 53.655C414.072 48.455 413.812 44.75 413.552 39.68C411.147 39.745 409.197 39.68 407.117 39.55C407.117 37.99 407.637 34.675 407.767 34.09H418.882C422.652 34.09 429.412 33.635 432.922 33.505C433.182 34.09 433.767 37.275 433.832 38.055C433.312 38.315 429.672 39.095 425.642 39.615C425.512 41.305 425.122 46.245 425.057 50.99C425.187 56.775 425.642 63.275 425.772 65.55C425.642 66.33 425.447 67.175 425.252 68.02C428.567 68.215 432.402 68.215 434.027 68.215C435.457 65.615 437.407 59.635 438.512 55.475C440.072 55.475 444.102 56.19 445.597 56.775C445.662 60.805 445.272 69.905 444.297 74.195C435.457 74.195 423.432 74 417.972 74L408.027 74.52Z" fill="black"/>
<path fill-rule="evenodd" clip-rule="evenodd" d="M333.173 41.4081L341.149 38.6046C346.192 36.8322 351.716 39.4832 353.489 44.5257L356.292 52.5015C358.064 57.544 355.414 63.0686 350.371 64.841L342.395 67.6444C340.576 68.284 338.693 68.3476 336.947 67.9306C336.816 67.8997 336.686 67.8661 336.557 67.8297C334.64 67.2902 332.936 66.1728 331.677 64.6297L331.683 64.6308C330.994 63.7864 330.438 62.8105 330.056 61.7234L327.252 53.7475C325.48 48.705 328.131 43.1805 333.173 41.4081ZM336.797 50.318L337.585 50.3531C337.65 50.3531 337.713 50.3732 337.765 50.4107C337.818 50.4482 337.858 50.5011 337.879 50.5623C337.9 50.6234 337.902 50.6896 337.884 50.7516C337.865 50.8137 337.828 50.8685 337.777 50.9085L336.653 51.8999C336.584 51.9579 336.515 52.0166 336.445 52.0754C336.332 52.1713 336.218 52.2676 336.103 52.3614C335.732 52.6633 335.356 52.9616 334.968 53.2454C334.58 53.5292 334.185 53.8046 333.776 54.0664L333.754 54.0739C333.692 54.1127 333.619 54.1285 333.546 54.1184C333.474 54.1083 333.407 54.073 333.358 54.0188C333.309 53.9645 333.281 53.8947 333.278 53.8216C333.276 53.7485 333.299 53.6769 333.344 53.6192L333.359 53.6006C333.661 53.2211 333.978 52.8565 334.302 52.5014C334.481 52.3034 334.665 52.1085 334.852 51.9168C334.892 51.8755 334.92 51.8237 334.932 51.7674C334.945 51.711 334.941 51.6524 334.922 51.5979C334.903 51.5435 334.869 51.4955 334.824 51.4593C334.779 51.4232 334.725 51.4003 334.668 51.3932C334.403 51.3602 334.139 51.3234 333.873 51.2826C333.398 51.2072 332.923 51.117 332.451 51.0147L332.437 51.0117C332.365 50.9954 332.302 50.9543 332.257 50.8957C332.213 50.837 332.191 50.7646 332.195 50.6912C332.199 50.6179 332.229 50.5484 332.28 50.4949C332.33 50.4415 332.398 50.4077 332.471 50.3995L332.485 50.3945C332.963 50.3452 333.443 50.3107 333.923 50.2911C334.881 50.2523 335.84 50.2612 336.797 50.318ZM343.901 47.8181L343.315 48.339C343.265 48.3791 343.229 48.4336 343.211 48.4951C343.193 48.5566 343.195 48.6221 343.216 48.6827C343.237 48.7432 343.276 48.7959 343.328 48.8334C343.379 48.8709 343.442 48.8916 343.506 48.8924L345.003 48.9624C345.094 48.9641 345.184 48.9666 345.275 48.9691C345.424 48.9731 345.572 48.9771 345.721 48.9779C346.199 48.9814 346.679 48.9788 347.16 48.9574C347.64 48.936 348.12 48.9038 348.603 48.8519L348.625 48.8444C348.697 48.8359 348.765 48.8021 348.815 48.7489C348.865 48.6958 348.895 48.6266 348.899 48.5536C348.903 48.4806 348.882 48.4085 348.838 48.3498C348.794 48.2912 348.731 48.2498 348.66 48.2329L348.637 48.2277C348.164 48.1207 347.689 48.0344 347.214 47.9602C346.95 47.9181 346.685 47.8808 346.419 47.8484C346.362 47.8413 346.307 47.8185 346.262 47.7823C346.218 47.7461 346.184 47.6981 346.164 47.6437C346.145 47.5893 346.142 47.5306 346.154 47.4742C346.167 47.4179 346.195 47.3662 346.235 47.3248C346.421 47.1334 346.605 46.9389 346.785 46.7414C347.109 46.3851 347.423 46.0174 347.727 45.6427L347.736 45.6313C347.782 45.5738 347.806 45.502 347.804 45.4285C347.802 45.3551 347.773 45.2848 347.724 45.2302C347.675 45.1755 347.608 45.14 347.536 45.1299C347.463 45.1198 347.389 45.1358 347.327 45.175L347.313 45.18C346.909 45.4407 346.513 45.7138 346.126 45.9989C345.355 46.5679 344.612 47.1751 343.901 47.8181ZM336.451 55.7753L347.58 51.8636C347.663 51.8343 347.75 51.8227 347.837 51.8295C347.925 51.8363 348.009 51.8614 348.086 51.9032C348.163 51.9449 348.23 52.0024 348.284 52.0718C348.337 52.1412 348.375 52.221 348.395 52.3061C348.638 53.3262 348.819 55.3536 347.137 57.0923C346.626 56.6964 345.982 56.5137 345.339 56.5825C343.61 56.7881 343.298 57.4461 343.298 57.4461C343.298 57.4461 342.643 57.1321 341.165 58.0496C340.62 58.3983 340.231 58.9446 340.081 59.5737C340.671 59.6299 341.263 59.6224 341.848 59.5523C338.199 60.057 336.64 57.787 336.093 56.6303C336.055 56.5512 336.035 56.4652 336.033 56.3778C336.031 56.2903 336.047 56.2035 336.081 56.1228C336.115 56.0422 336.166 55.9696 336.229 55.9097C336.293 55.8498 336.369 55.804 336.451 55.7753ZM345.885 58.094C346.374 57.7867 346.779 57.4584 347.112 57.1188C346.733 57.4831 346.322 57.8095 345.885 58.094Z" fill="black"/>
<path fill-rule="evenodd" clip-rule="evenodd" d="M385.185 39.3641L393.462 41.0839C398.695 42.1711 402.056 47.2949 400.969 52.528L399.611 59.0662L399.612 59.0649L399.25 60.8051C399.169 61.1968 399.064 61.581 398.936 61.9558C398.245 63.9855 396.895 65.7403 395.083 66.9286C394.85 67.0817 394.611 67.224 394.367 67.3553C392.43 68.4009 390.129 68.795 387.805 68.3123L379.528 66.5925C374.294 65.5052 370.934 60.3815 372.021 55.1483L373.741 46.8709C374.828 41.6377 379.952 38.2768 385.185 39.3641ZM383.14 50.4962C383.177 50.4645 383.203 50.422 383.214 50.3748C383.313 49.9183 383.255 49.4418 383.049 49.0224C382.885 48.693 382.648 48.4052 382.356 48.1806C382.064 47.9559 381.726 47.8003 381.365 47.7254C381.005 47.6505 380.632 47.6583 380.275 47.7482C379.918 47.8381 379.586 48.0077 379.304 48.2443C378.947 48.5469 378.703 48.962 378.613 49.4215C378.604 49.4691 378.611 49.5183 378.631 49.562C378.652 49.6057 378.687 49.6417 378.729 49.6649C378.772 49.688 378.82 49.6971 378.868 49.6909C378.917 49.6847 378.961 49.6635 378.997 49.6303C379.241 49.389 379.531 49.1994 379.85 49.073C380.249 48.9127 380.687 48.874 381.109 48.9616C381.531 49.0492 381.917 49.2592 382.22 49.5654C382.461 49.8077 382.651 50.0962 382.778 50.4134C382.797 50.4579 382.83 50.4953 382.872 50.5201C382.913 50.5449 382.962 50.556 383.01 50.5517C383.058 50.5474 383.104 50.528 383.14 50.4962ZM395.397 53.0427C395.433 53.0109 395.459 52.9684 395.47 52.9213C395.569 52.4648 395.511 51.9883 395.306 51.5689C395.141 51.2395 394.904 50.9517 394.613 50.727C394.321 50.5024 393.982 50.3468 393.622 50.2719C393.261 50.197 392.889 50.2048 392.532 50.2947C392.175 50.3845 391.843 50.5542 391.56 50.7908C391.203 51.0934 390.959 51.5085 390.869 51.9679C390.861 52.0156 390.867 52.0648 390.888 52.1085C390.909 52.1522 390.943 52.1882 390.986 52.2113C391.028 52.2345 391.077 52.2436 391.125 52.2374C391.173 52.2312 391.218 52.21 391.253 52.1768C391.497 51.9355 391.787 51.7459 392.106 51.6194C392.506 51.4591 392.944 51.4204 393.366 51.508C393.788 51.5956 394.175 51.8058 394.478 52.1121C394.718 52.3547 394.907 52.643 395.035 52.9599C395.054 53.0044 395.087 53.0417 395.128 53.0666C395.17 53.0914 395.218 53.1024 395.266 53.0982C395.315 53.0939 395.36 53.0745 395.397 53.0427ZM380.573 53.3598L392.123 55.7594C392.208 55.7769 392.289 55.8123 392.361 55.8631C392.432 55.914 392.491 55.9793 392.536 56.0547C392.58 56.1302 392.608 56.2141 392.617 56.301C392.627 56.3879 392.618 56.4759 392.592 56.5592C392.205 57.7701 390.976 60.2015 387.35 60.2194C387.914 60.2064 388.476 60.1357 389.029 60.0074C388.796 59.4039 388.338 58.9141 387.752 58.6408C386.166 57.9239 385.558 58.3257 385.558 58.3257C385.558 58.3257 385.16 57.7188 383.42 57.7408C382.774 57.7579 382.16 58.0241 381.706 58.4837C379.808 56.9836 379.719 54.9499 379.824 53.9065C379.833 53.8195 379.86 53.7354 379.903 53.6595C379.947 53.5836 380.006 53.5178 380.077 53.4662C380.147 53.4146 380.228 53.3785 380.313 53.3602C380.399 53.3418 380.487 53.3417 380.573 53.3598ZM381.781 58.5414C382.124 58.8036 382.524 59.0486 382.99 59.268C382.568 59.0613 382.163 58.8184 381.781 58.5414Z" fill="black"/>
<path d="M286.176 29.7026C286.656 29.827 287.09 30.0179 287.453 30.2586C288.201 30.7546 288.664 31.4643 288.664 32.2701C288.664 33.0759 288.201 33.7856 287.453 34.2816C286.784 34.7255 285.872 35 284.877 35C283.881 35 282.97 34.7255 282.3 34.2816C281.552 33.7856 281.089 33.0759 281.089 32.2701C281.089 31.4643 281.552 30.7546 282.3 30.2586C282.663 30.0179 283.098 29.827 283.578 29.7026V31.6928C283.578 32.4099 284.16 32.9916 284.877 32.9916C285.594 32.9916 286.176 32.4099 286.176 31.6928L286.176 29.7026Z" fill="black"/>
<path d="M284.876 5.00001C286.687 5.00001 288.339 5.29063 289.548 5.76053C290.94 6.30214 291.802 7.12145 291.802 8.09005C291.802 9.05862 290.94 9.87797 289.548 10.4196C288.339 10.8895 286.687 11.1801 284.876 11.1801C283.066 11.1801 281.414 10.8895 280.205 10.4196C278.812 9.87797 277.951 9.05862 277.951 8.09005C277.951 7.12145 278.812 6.30214 280.205 5.76053C281.414 5.29065 283.066 5.00001 284.876 5.00001ZM289.081 6.96796C288.018 6.55453 286.532 6.29883 284.876 6.29883C283.221 6.29883 281.735 6.55455 280.672 6.96796C279.793 7.30965 279.25 7.71072 279.25 8.09005C279.25 8.46938 279.793 8.87045 280.672 9.21215C281.735 9.62558 283.221 9.8813 284.876 9.8813C286.532 9.8813 288.018 9.62558 289.081 9.21215C289.959 8.87045 290.503 8.46938 290.503 8.09005C290.503 7.71072 289.96 7.30965 289.081 6.96796Z" fill="black"/>
<path d="M291.802 8.09005V16.9375C291.802 19.9025 289.985 21.7973 287.659 22.624C286.778 22.9372 285.826 23.0938 284.876 23.0938C283.927 23.0938 282.975 22.9372 282.094 22.624C279.768 21.7974 277.951 19.9025 277.951 16.9375V8.09005H279.25L279.25 16.9375C279.25 19.2591 280.686 20.7478 282.525 21.4014C283.263 21.6638 284.068 21.795 284.876 21.795C285.684 21.795 286.489 21.6638 287.228 21.4014C289.066 20.7478 290.503 19.2592 290.503 16.9375V8.09005H291.802Z" fill="black"/>
<path d="M285.526 22.4439C285.526 22.0853 285.235 21.795 284.876 21.795C284.518 21.795 284.228 22.0853 284.228 22.4439V31.6929C284.228 32.0516 284.518 32.3423 284.877 32.3423C285.236 32.3423 285.526 32.0516 285.526 31.6929V22.4439Z" fill="black"/>
<path d="M279.899 13.9236C281.92 14.3279 283.458 13.887 284.92 13.4676C286.49 13.0174 287.981 12.5898 289.854 13.0594V16.9375C289.854 18.8273 288.755 20.1693 287.01 20.7895C286.33 21.0314 285.598 21.1457 284.876 21.1457C284.155 21.1457 283.423 21.0314 282.742 20.7895C280.998 20.1693 279.899 18.8273 279.899 16.9375L279.899 13.9236Z" fill="black"/>
<path d="M302.869 29.7882C302.422 30.0035 302.033 30.2752 301.723 30.5819C301.086 31.2139 300.77 32 300.927 32.7904C301.083 33.5808 301.675 34.187 302.505 34.5282C303.248 34.8334 304.196 34.9255 305.172 34.7321C306.149 34.5386 306.99 34.0921 307.56 33.5265C308.198 32.8946 308.514 32.1085 308.357 31.3181C308.2 30.5277 307.609 29.9214 306.778 29.5803C306.375 29.4148 305.912 29.3119 305.417 29.2833L305.804 31.2356C305.943 31.939 305.485 32.6226 304.782 32.762C304.079 32.9014 303.395 32.4438 303.256 31.7404L302.869 29.7882Z" fill="black"/>
<path d="M299.342 5.30409C297.566 5.65596 296.002 6.26229 294.908 6.95804C293.647 7.76004 292.961 8.7312 293.149 9.6813C293.338 10.6314 294.342 11.2677 295.813 11.5282C297.09 11.7543 298.768 11.7182 300.543 11.3663C302.319 11.0145 303.884 10.4081 304.978 9.71237C306.239 8.91037 306.924 7.93922 306.736 6.98914C306.548 6.039 305.544 5.40275 304.072 5.14215C302.795 4.91611 301.118 4.9522 299.342 5.30409ZM295.6 8.05174C296.563 7.43955 297.97 6.89999 299.595 6.57814C301.219 6.2563 302.726 6.21841 303.849 6.41733C304.777 6.58173 305.388 6.86947 305.462 7.2416C305.536 7.61367 305.081 8.11275 304.285 8.6187C303.323 9.23089 301.915 9.77047 300.291 10.0923C298.667 10.4142 297.16 10.452 296.037 10.2531C295.108 10.0887 294.497 9.80096 294.423 9.42885C294.35 9.05676 294.805 8.55771 295.6 8.05174Z" fill="black"/>
<path d="M293.149 9.6813L294.869 18.36C295.445 21.2684 297.595 22.774 300.038 23.1329C300.963 23.2688 301.927 23.2373 302.858 23.0528C303.79 22.8684 304.693 22.5296 305.497 22.0511C307.617 20.7882 309.032 18.5763 308.455 15.6678L306.736 6.98914L305.462 7.2416L307.181 15.9203C307.632 18.1976 306.513 19.9371 304.836 20.9356C304.163 21.3366 303.399 21.6218 302.606 21.7788C301.813 21.9359 300.998 21.9636 300.223 21.8497C298.292 21.566 296.594 20.385 296.143 18.1075L294.423 9.42885L293.149 9.6813Z" fill="black"/>
<path d="M302.096 22.5417C302.026 22.1898 302.255 21.8481 302.607 21.7784C302.959 21.7087 303.301 21.9374 303.37 22.2892L305.168 31.3618C305.238 31.7136 305.009 32.0553 304.657 32.1251C304.305 32.1948 303.964 31.9661 303.894 31.6143L302.096 22.5417Z" fill="black"/>
<path d="M305.958 13.0901C304.055 13.8795 302.46 13.7459 300.944 13.6187C299.317 13.4822 297.771 13.3526 296.026 14.1772L296.779 17.9813C297.147 19.8351 298.485 20.938 300.317 21.2072C301.032 21.3122 301.772 21.2821 302.48 21.1418C303.187 21.0016 303.883 20.7473 304.504 20.3777C306.095 19.4302 306.911 17.9003 306.544 16.0465L305.958 13.0901Z" fill="black"/>
<path d="M206.898 26.2891C207.475 25.319 208.342 24.4926 209.394 23.8521C210.013 23.4748 210.699 23.1614 211.426 22.9206C212.294 23.4378 213.549 23.7629 214.945 23.7629C216.343 23.7629 217.6 23.4368 218.467 22.9182C219.185 23.1539 219.861 23.4598 220.473 23.8276C221.542 24.4692 222.419 25.3005 222.992 26.2803C220.171 26.6943 217.315 27.6389 214.915 28.9823C212.533 27.6483 209.7 26.7075 206.898 26.2891Z" fill="black"/>
<path d="M226.664 28.4809V27.3327C226.664 27.0244 226.414 26.7744 226.106 26.7744C222.369 26.7744 218.16 27.9125 214.917 29.8228C211.673 27.9125 207.465 26.7744 203.727 26.7744C203.419 26.7744 203.169 27.0244 203.169 27.3327V28.4809C203.364 28.5584 203.558 28.6987 203.753 28.7955C204.765 28.7213 205.922 28.5366 206.406 29.7669C206.5 30.0033 206.541 30.2598 206.534 30.5134C206.527 30.761 206.474 31.0092 206.376 31.2368L206.376 31.2378L206.375 31.2388C206.371 31.2482 206.367 31.258 206.362 31.2674L206.362 31.2684L206.362 31.2694C206.435 31.4992 206.465 31.741 206.448 31.9819C206.433 32.2051 206.379 32.4261 206.287 32.6301L206.286 32.6314L206.286 32.6327L206.285 32.6339L206.285 32.6352L206.284 32.6365L206.284 32.6376L206.284 32.6389C206.288 32.6507 206.292 32.6627 206.295 32.6746L206.296 32.6772C206.358 32.8912 206.382 33.1149 206.367 33.3372C206.351 33.5603 206.297 33.7813 206.205 33.9853C205.907 34.6476 205.273 35.0324 204.542 34.9798L204.538 34.9795L204.534 34.9793L204.53 34.979L204.526 34.9787L204.524 34.9786L204.518 34.9782L204.51 34.9776L204.506 34.9774L204.502 34.9771L204.498 34.9769L204.494 34.9766L204.49 34.9764L204.488 34.9763L204.482 34.9759L204.474 34.9754L204.471 34.9752L204.466 34.9749L204.454 34.9743L204.453 34.9742L204.45 34.9741L204.446 34.9738L204.438 34.9734L204.435 34.9733L204.422 34.9726L204.418 34.9724L204.417 34.9724L204.414 34.9723L204.41 34.972L204.399 34.9715L204.398 34.9715L204.394 34.9713L204.39 34.9711L204.366 34.9702L204.363 34.9701L204.358 34.9699L204.354 34.9697L204.35 34.9696L204.346 34.9694L204.33 34.9689L204.327 34.9688L204.322 34.9686L204.314 34.9684L204.31 34.9683L204.302 34.968L204.298 34.9679L204.294 34.9678L204.292 34.9678L204.29 34.9677L204.286 34.9676C203.99 34.9601 203.695 34.9738 203.399 34.9888C203.322 34.9927 203.246 34.9965 203.169 34.9998V36.317C203.169 36.6253 203.419 36.8753 203.727 36.8753C207.407 36.8753 211.495 37.6512 214.534 39.87C214.641 39.9596 214.777 40.0059 214.917 39.9996C215.056 40.0059 215.193 39.9596 215.299 39.8699C218.338 37.6512 222.426 36.8753 226.106 36.8753C226.414 36.8753 226.664 36.6253 226.664 36.317V34.9998C226.588 34.9965 226.511 34.9927 226.435 34.9888C226.138 34.9738 225.843 34.9601 225.548 34.9676L225.544 34.9677L225.542 34.9678L225.54 34.9678L225.536 34.9679L225.532 34.968L225.528 34.9682L225.524 34.9683L225.52 34.9684L225.512 34.9686L225.506 34.9688L225.504 34.9689L225.492 34.9693L225.488 34.9694L225.484 34.9696L225.48 34.9697L225.476 34.9699L225.47 34.9701L225.468 34.9702L225.456 34.9707L225.452 34.9708L225.447 34.971L225.443 34.9711L225.439 34.9713L225.435 34.9715L225.434 34.9715L225.427 34.9719L225.423 34.972L225.419 34.9723L225.415 34.9724L225.411 34.9726L225.407 34.9728L225.399 34.9732L225.395 34.9734L225.387 34.9738L225.383 34.9741L225.381 34.9742L225.379 34.9743L225.355 34.9756L225.351 34.9759L225.347 34.9761L225.345 34.9763L225.343 34.9764L225.339 34.9766L225.335 34.9769L225.331 34.9771L225.327 34.9774L225.323 34.9776L225.315 34.9782L225.311 34.9784L225.309 34.9786L225.307 34.9787L225.303 34.979L225.299 34.9793L225.295 34.9795L225.291 34.9798C224.56 35.0323 223.927 34.6476 223.628 33.9853C223.536 33.7813 223.482 33.5603 223.467 33.3372C223.451 33.1149 223.475 32.8918 223.537 32.6778L223.538 32.6765L223.538 32.6753C223.541 32.6633 223.545 32.6507 223.549 32.6389L223.549 32.6376L223.549 32.6365L223.549 32.6352L223.548 32.6339L223.548 32.6327L223.547 32.6314L223.546 32.6301C223.454 32.4261 223.4 32.2051 223.385 31.9819C223.369 31.741 223.398 31.4992 223.472 31.2694L223.471 31.2684L223.471 31.2674C223.467 31.258 223.462 31.2487 223.458 31.2393L223.458 31.2383L223.458 31.2373C223.359 31.0097 223.307 30.761 223.3 30.5134C223.293 30.2597 223.334 30.0033 223.427 29.7669C223.911 28.5366 225.069 28.7213 226.081 28.7955C226.275 28.6987 226.469 28.5583 226.664 28.4809Z" fill="black"/>
<path d="M203.155 29.2928C203.268 29.3449 203.36 29.3902 203.436 29.4272C203.566 29.491 203.626 29.5203 203.672 29.5257C203.729 29.5322 203.827 29.5249 204.009 29.5114C204.015 29.511 204.02 29.5102 204.026 29.5101C204.209 29.4964 204.471 29.4774 204.9 29.4599C205.354 29.4415 205.643 29.6923 205.777 30.0335C205.833 30.1754 205.858 30.3341 205.854 30.4927C205.85 30.6496 205.817 30.8067 205.756 30.9472C205.712 31.0477 205.656 31.1412 205.587 31.2229C205.649 31.3147 205.695 31.4171 205.727 31.5251C205.765 31.657 205.78 31.7945 205.77 31.9315C205.761 32.069 205.728 32.2054 205.672 32.3298C205.63 32.4228 205.576 32.5093 205.51 32.5854C205.57 32.6753 205.615 32.7753 205.645 32.8804C205.683 33.0123 205.698 33.1498 205.689 33.2867C205.679 33.4243 205.646 33.5607 205.59 33.685C205.434 34.0311 205.114 34.2859 204.644 34.2521C204.198 34.2201 203.781 34.2413 203.411 34.2601C202.579 34.3025 201.949 34.3345 201.573 33.8064C200.681 32.553 200.878 31.1789 201.358 30.2614C201.498 29.9957 201.661 29.7671 201.828 29.5896C202.012 29.3948 202.209 29.2531 202.397 29.1799C202.684 29.0688 202.95 29.0963 203.155 29.2928ZM226.448 29.427C226.523 29.3901 226.616 29.3448 226.728 29.2927C226.933 29.0962 227.199 29.0687 227.486 29.1798C227.674 29.253 227.871 29.3947 228.055 29.5894C228.223 29.767 228.386 29.9956 228.525 30.2613C229.005 31.1788 229.202 32.5529 228.31 33.8063C227.934 34.3344 227.304 34.3023 226.472 34.26C226.103 34.2412 225.685 34.22 225.239 34.252C224.769 34.2858 224.449 34.031 224.293 33.6849C224.237 33.5606 224.204 33.4241 224.195 33.2866C224.185 33.1497 224.2 33.0121 224.238 32.8803C224.269 32.7751 224.313 32.6752 224.373 32.5853C224.307 32.5092 224.254 32.4227 224.212 32.3296C224.156 32.2053 224.122 32.0689 224.113 31.9313C224.104 31.7944 224.118 31.6569 224.156 31.525C224.188 31.417 224.234 31.3146 224.296 31.2228C224.227 31.1411 224.171 31.0476 224.127 30.9471C224.067 30.8066 224.034 30.6495 224.029 30.4926C224.025 30.334 224.05 30.1753 224.106 30.0334C224.24 29.6923 224.529 29.4414 224.983 29.4598C225.413 29.4772 225.674 29.4963 225.857 29.51C225.863 29.5101 225.868 29.5104 225.874 29.5108C226.056 29.5243 226.154 29.5321 226.211 29.5256C226.257 29.5202 226.317 29.4908 226.448 29.427Z" fill="black"/>
<path d="M210.84 5C210.429 5.46129 210.515 7.4391 210.631 8.12777C209.558 8.90041 208.71 9.94732 208.169 11.1494C207.575 12.4723 207.352 13.9835 207.614 15.5235C207.962 17.5695 209.098 19.2799 210.653 20.3913C212.207 21.5013 214.18 22.0123 216.204 21.6612C218.228 21.3098 219.921 20.1617 221.02 18.5896C222.119 17.0194 222.624 15.0255 222.277 12.9806C221.929 10.9345 220.793 9.22404 219.238 8.11277C217.699 7.01356 215.749 6.50187 213.746 6.83307C212.294 7.06246 210.998 5.59014 210.84 5ZM209.207 15.8055C210.076 15.4293 210.864 14.8906 211.531 14.2184C212.074 13.6709 212.529 13.0433 212.881 12.3575C213.13 12.5921 213.394 12.8095 213.672 13.0081C215.226 14.1182 217.199 14.6291 219.222 14.278C219.653 14.2032 220.08 14.0886 220.497 13.936C220.622 13.8902 220.746 13.841 220.868 13.7886C220.98 15.2266 220.574 16.6059 219.796 17.719C218.919 18.9725 217.568 19.8881 215.952 20.1686C214.334 20.4493 212.757 20.0408 211.515 19.1535C210.413 18.3664 209.575 17.2012 209.207 15.8055Z" fill="black"/>
<path fill-rule="evenodd" clip-rule="evenodd" d="M147.095 49.0387L146.545 53.5049L145.866 53.4743L145.623 55.5127C145.43 57.0123 146.049 58.4622 147.227 59.2884L153.093 63.4001C154.271 64.2262 155.845 64.3134 157.189 63.6208L163.033 60.6484C164.377 59.9558 165.333 58.5931 165.525 57.0935L166.326 50.5859C166.519 49.0863 165.901 47.6364 164.722 46.8102L163.982 46.2914L163.564 46.887L158.439 43.2942C157.452 42.6025 156.153 42.5314 155.016 43.1039L149.172 46.0762C148.035 46.6487 147.246 47.7745 147.095 49.0387ZM153.523 47.7994C153.585 47.8427 153.639 47.8909 153.686 47.9436C154.262 48.5703 154.074 49.9295 153.231 51.1309C152.318 52.4344 150.967 53.0782 150.2 52.5403C150.176 52.5235 150.154 52.5063 150.134 52.4885C149.443 51.9123 149.605 50.4731 150.492 49.2087C151.405 47.9052 152.756 47.2614 153.523 47.7994ZM152.377 59.056C153.154 59.1144 153.836 58.6652 153.901 58.048C153.966 57.4307 153.377 56.9295 152.6 56.8711C151.824 56.8127 151.141 57.2619 151.076 57.8792C151.011 58.4965 151.6 58.9977 152.377 59.056ZM158.885 46.7403C158.443 46.9613 158.262 47.629 158.52 48.2519C158.778 48.8748 159.334 49.1317 159.775 48.9107C160.216 48.6897 160.398 48.022 160.14 47.3991C159.881 46.7762 159.326 46.5193 158.885 46.7403ZM160.217 49.9715C159.776 50.1926 159.594 50.8603 159.852 51.4832C160.083 52.0868 160.666 52.363 161.107 52.142C161.548 51.921 161.73 51.2533 161.472 50.6304C161.213 50.0075 160.678 49.7209 160.217 49.9715ZM162.432 55.3244C162.873 55.1034 163.055 54.4357 162.797 53.8128C162.566 53.2092 161.983 52.933 161.542 53.154C161.101 53.375 160.919 54.0427 161.177 54.6656C161.436 55.2885 161.991 55.5454 162.432 55.3244ZM158.972 57.2286C158.195 57.1702 157.513 57.6194 157.448 58.2367C157.383 58.854 157.972 59.3551 158.748 59.4135C159.525 59.4719 160.208 59.0227 160.273 58.4054C160.337 57.7881 159.749 57.287 158.972 57.2286Z" fill="black"/>
<path fill-rule="evenodd" clip-rule="evenodd" d="M86.951 53.5C86.951 63.165 79.116 71 69.451 71C59.786 71 51.951 63.165 51.951 53.5C51.951 43.835 59.786 36 69.451 36C79.116 36 86.951 43.835 86.951 53.5ZM76.0296 47.7835L76.2072 47.9386C76.2471 47.9735 76.2798 48.016 76.3034 48.0635C76.327 48.1111 76.3409 48.1628 76.3445 48.2158C76.3481 48.2687 76.3412 48.3218 76.3242 48.3721C76.3073 48.4224 76.2806 48.4689 76.2457 48.5088L73.0996 52.1103C73.0291 52.1909 72.9294 52.2403 72.8225 52.2475C72.7156 52.2548 72.6102 52.2192 72.5295 52.1488L72.0767 51.7532L69.8986 54.2467L71.2485 55.792C71.4278 55.8139 71.5999 55.8995 71.7281 56.0462L75.6744 60.5638C75.7632 60.6655 75.8201 60.7842 75.8459 60.9075C75.9826 61.2054 75.9144 61.5696 75.6549 61.7963L75.5082 61.9244C75.1923 62.2004 74.7125 62.1679 74.4365 61.852L70.4902 57.3344C70.4015 57.2329 70.3446 57.1143 70.3188 56.9911C70.2864 56.9205 70.2655 56.8462 70.2559 56.7709L68.9747 55.3042L67.5261 56.9626C67.4953 57.0574 67.4453 57.1477 67.3756 57.2275L63.4293 61.745C63.1534 62.061 62.6735 62.0934 62.3576 61.8175L62.2109 61.6893C61.8949 61.4133 61.8625 60.9335 62.1385 60.6176L66.0848 56.1C66.2555 55.9046 66.5043 55.8176 66.7439 55.845L68.0955 54.2978L66.5047 52.4767C65.2541 53.1461 64.3297 52.088 63.2212 50.819C62.6992 50.2214 62.3358 49.5676 62.1491 48.9538C61.8217 48.0196 61.8918 47.157 62.4215 46.6943C63.2721 45.9513 64.9855 46.5212 66.2486 47.9672C66.917 48.7323 67.5184 49.4207 67.7084 50.0987C67.8882 50.5821 67.8739 51.0576 67.5419 51.5489L69.0193 53.2402L71.0794 50.882L70.4244 50.3099C70.3438 50.2393 70.2944 50.1397 70.2872 50.0328C70.28 49.9258 70.3155 49.8204 70.386 49.7397L73.532 46.1382C73.5669 46.0983 73.6093 46.0656 73.6569 46.042C73.7044 46.0185 73.7561 46.0045 73.809 46.0009C73.862 45.9973 73.9151 46.0042 73.9654 46.0212C74.0156 46.0382 74.0621 46.0649 74.102 46.0998L74.2797 46.2549L71.2195 49.7579L71.7775 50.2454L74.8377 46.7423L75.4717 47.2961L72.4494 50.7558C72.4643 50.7907 72.4761 50.8267 72.4848 50.8632L72.9695 51.2866L76.0296 47.7835Z" fill="black"/>
</g>
<defs>
<filter id="filter0_i_26_54" x="-3" y="-3" width="502" height="105" filterUnits="userSpaceOnUse" color-interpolation-filters="sRGB">
<feFlood flood-opacity="0" result="BackgroundImageFix"/>
<feBlend mode="normal" in="SourceGraphic" in2="BackgroundImageFix" result="shape"/>
<feColorMatrix in="SourceAlpha" type="matrix" values="0 0 0 0 0 0 0 0 0 0 0 0 0 0 0 0 0 0 127 0" result="hardAlpha"/>
<feOffset dx="-3" dy="-3"/>
<feGaussianBlur stdDeviation="5"/>
<feComposite in2="hardAlpha" operator="arithmetic" k2="-1" k3="1"/>
<feColorMatrix type="matrix" values="0 0 0 0 0 0 0 0 0 0 0 0 0 0 0 0 0 0 0.25 0"/>
<feBlend mode="normal" in2="shape" result="effect1_innerShadow_26_54"/>
</filter>
<filter id="filter1_d_26_54" x="45" y="3" width="409.604" height="82.755" filterUnits="userSpaceOnUse" color-interpolation-filters="sRGB">
<feFlood flood-opacity="0" result="BackgroundImageFix"/>
<feColorMatrix in="SourceAlpha" type="matrix" values="0 0 0 0 0 0 0 0 0 0 0 0 0 0 0 0 0 0 127 0" result="hardAlpha"/>
<feOffset dx="3" dy="4"/>
<feGaussianBlur stdDeviation="3"/>
<feComposite in2="hardAlpha" operator="out"/>
<feColorMatrix type="matrix" values="0 0 0 0 0 0 0 0 0 0 0 0 0 0 0 0 0 0 0.25 0"/>
<feBlend mode="normal" in2="BackgroundImageFix" result="effect1_dropShadow_26_54"/>
<feBlend mode="normal" in="SourceGraphic" in2="effect1_dropShadow_26_54" result="shape"/>
</filter>
</defs>
</svg>
